<svg width="100" height="100" fill="none" xmlns="http://www.w3.org/2000/svg"><path fill="#121521" d="M0 0h100v100H0z"/><path d="M73 79.867c-1.188.79-2.804 1.68-4.849 2.667-2.045.988-4.453 1.844-7.224 2.568-2.705.659-5.673.955-8.906.889-5.608-.066-10.622-1.053-15.042-2.963-4.42-1.91-8.213-4.51-11.38-7.803a35.615 35.615 0 0 1-7.125-11.457C16.824 59.488 16 54.91 16 50.038c0-5.333.858-10.238 2.573-14.716 1.781-4.543 4.255-8.461 7.422-11.754 3.166-3.358 6.894-5.959 11.182-7.802C41.531 13.922 46.281 13 51.427 13c4.288 0 8.18.593 11.677 1.778 3.497 1.12 6.498 2.436 9.005 3.95l-3.859 8.989c-1.98-1.317-4.387-2.568-7.224-3.753-2.837-1.186-5.938-1.778-9.302-1.778-3.497 0-6.795.724-9.896 2.172a25.613 25.613 0 0 0-8.213 5.828c-2.375 2.436-4.256 5.334-5.641 8.692-1.32 3.292-1.98 6.848-1.98 10.667 0 5.136 1.056 9.778 3.168 13.926 2.177 4.083 5.211 7.31 9.104 9.68 3.958 2.37 8.576 3.556 13.854 3.556 3.694 0 6.927-.527 9.698-1.58 2.837-1.12 5.178-2.404 7.026-3.853L73 79.867Z" fill="#fff"/><path d="M77 50.465 51 70V30l26 20.465Z" fill="#40467C"/></svg>