<svg width="19" height="33" fill="none" xmlns="http://www.w3.org/2000/svg"><path d="M11.24 32.063H6.107a1.557 1.557 0 0 1-1.555-1.556v-11.58H1.555A1.557 1.557 0 0 1 0 17.37v-4.963c0-.857.698-1.555 1.555-1.555h2.996V8.368c0-2.464.774-4.56 2.237-6.062C8.258.797 10.313 0 12.73 0l3.915.006c.857.002 1.553.7 1.553 1.556v4.607c0 .858-.697 1.556-1.555 1.556h-2.636c-.804 0-1.009.162-1.053.211-.072.082-.158.314-.158.953v1.964h3.65c.274 0 .54.068.769.195.493.276.8.797.8 1.36l-.002 4.963c0 .857-.698 1.555-1.555 1.555h-3.662v11.581c0 .858-.698 1.556-1.555 1.556Zm-4.81-1.88h4.486V18.085a1.04 1.04 0 0 1 1.039-1.039h4.178l.002-4.313h-4.18a1.04 1.04 0 0 1-1.039-1.039V8.89c0-.734.075-1.569.63-2.197.669-.759 1.725-.846 2.46-.846l2.313-.001v-3.96l-3.59-.005c-3.885 0-6.298 2.486-6.298 6.488v3.326a1.04 1.04 0 0 1-1.039 1.039H1.88v4.313h3.512a1.04 1.04 0 0 1 1.039 1.039v12.098ZM16.643 1.886Z" fill="#fff"/></svg>