<svg width="129" height="40" fill="none" xmlns="http://www.w3.org/2000/svg"><path d="M22.71 30.583c-.438.292-1.033.62-1.786.984-.753.364-1.64.68-2.66.947-.995.243-2.088.352-3.279.328-2.064-.024-3.91-.389-5.537-1.093-1.628-.704-3.024-1.664-4.19-2.878a13.143 13.143 0 0 1-2.624-4.227c-.607-1.58-.91-3.267-.91-5.065 0-1.968.315-3.777.947-5.43.656-1.675 1.567-3.12 2.732-4.335A12.242 12.242 0 0 1 9.52 6.935c1.604-.68 3.352-1.02 5.247-1.02 1.579 0 3.012.219 4.299.656 1.287.413 2.392.899 3.315 1.457l-1.42 3.316c-.73-.486-1.616-.947-2.66-1.384-1.045-.438-2.186-.656-3.425-.656a8.488 8.488 0 0 0-3.643.801 9.43 9.43 0 0 0-3.024 2.15c-.875.899-1.567 1.968-2.077 3.207-.486 1.214-.729 2.526-.729 3.935 0 1.895.389 3.607 1.166 5.138a9.124 9.124 0 0 0 3.352 3.57c1.458.875 3.158 1.312 5.1 1.312 1.361 0 2.551-.194 3.571-.583 1.045-.413 1.907-.887 2.587-1.421l1.53 3.17Zm5.112-13.117h3.389V32.55h-3.389V17.466Zm-.255-5.43c0-.558.207-1.008.62-1.348.437-.364.91-.546 1.42-.546.51 0 .972.182 1.385.546.413.34.62.79.62 1.348 0 .56-.207 1.02-.62 1.385-.413.34-.875.51-1.385.51s-.983-.17-1.42-.51a1.766 1.766 0 0 1-.62-1.384Zm12.602 5.43.218 2.915c.51-1.07 1.3-1.92 2.369-2.551 1.068-.632 2.307-.947 3.716-.947 1.409 0 2.562.425 3.461 1.275.923.826 1.409 1.907 1.457 3.243v11.15h-3.424v-9.984c-.049-.802-.304-1.458-.766-1.968-.437-.51-1.129-.777-2.076-.801-1.312 0-2.417.534-3.316 1.603-.874 1.044-1.311 2.405-1.311 4.08v7.07h-3.389V17.466h3.06Zm24.073 15.449c-1.7 0-3.182-.34-4.445-1.02a7.45 7.45 0 0 1-2.878-2.879c-.656-1.214-.984-2.587-.984-4.117 0-1.482.364-2.83 1.093-4.045a8.1 8.1 0 0 1 3.024-2.915c1.287-.728 2.708-1.093 4.262-1.093 1.992 0 3.644.583 4.956 1.75 1.311 1.165 2.21 2.768 2.696 4.809l-11.95 4.19a4.575 4.575 0 0 0 1.748 1.786c.753.413 1.603.62 2.55.62a5.15 5.15 0 0 0 1.932-.365 8.74 8.74 0 0 0 1.748-.948l1.567 2.515c-.777.51-1.64.923-2.587 1.238a8.407 8.407 0 0 1-2.732.474Zm-4.955-8.198c-.025.291-.012.57.036.838l8.78-3.243a5.68 5.68 0 0 0-1.493-1.931c-.632-.56-1.482-.838-2.55-.838-1.385 0-2.527.485-3.425 1.457-.899.972-1.348 2.21-1.348 3.717Zm19.948-7.251.219 2.878c.583-1.093 1.372-1.943 2.368-2.55 1.02-.632 2.186-.948 3.498-.948 1.238 0 2.27.292 3.096.875.85.583 1.373 1.372 1.567 2.368.607-1.02 1.397-1.81 2.368-2.368a6.175 6.175 0 0 1 3.17-.875c1.457 0 2.611.425 3.461 1.276.874.85 1.336 1.93 1.385 3.242v11.187h-3.389V22.64c-.048-.778-.255-1.421-.62-1.931-.34-.535-.934-.826-1.784-.875-.9 0-1.689.267-2.368.802-.68.51-1.215 1.19-1.604 2.04a6.841 6.841 0 0 0-.619 2.697v7.178h-3.425V22.64c-.024-.778-.23-1.421-.62-1.931-.363-.535-.983-.826-1.857-.875a3.67 3.67 0 0 0-2.332.802c-.68.51-1.214 1.19-1.603 2.04a6.495 6.495 0 0 0-.583 2.733v7.142h-3.388V17.466h3.06Zm33.307 15.449c-1.433 0-2.732-.304-3.898-.91-1.142-.608-2.052-1.495-2.732-2.66-.656-1.191-.984-2.636-.984-4.337 0-1.7.34-3.158 1.02-4.372.704-1.215 1.639-2.15 2.805-2.806 1.191-.656 2.49-.984 3.899-.984 1.36 0 2.514.292 3.461.875.947.583 1.688 1.287 2.222 2.113l.255-2.368h3.134V32.55h-3.389v-2.478c-.291.389-.716.802-1.275 1.239-.534.437-1.19.814-1.967 1.13-.753.315-1.603.473-2.551.473Zm.911-2.806c1.239 0 2.296-.34 3.17-1.02.874-.704 1.445-1.652 1.712-2.842v-2.988c-.291-1.044-.898-1.907-1.821-2.587-.923-.68-1.98-1.02-3.17-1.02-.923 0-1.761.218-2.514.656a5.043 5.043 0 0 0-1.822 1.822c-.437.777-.655 1.676-.655 2.696 0 .996.23 1.895.692 2.696a5.543 5.543 0 0 0 1.858 1.895 4.903 4.903 0 0 0 2.55.692Z" fill="#fff"/><path d="m24.25 20.083-9.474 7.16V12.582l9.474 7.5Z" fill="#40467C"/></svg>