<svg width="32" height="26" fill="none" xmlns="http://www.w3.org/2000/svg"><path d="m20.925 11.562-7.07-3.868a1.287 1.287 0 0 0-1.285.022 1.287 1.287 0 0 0-.636 1.117v7.67c0 .461.236.878.632 1.114a1.295 1.295 0 0 0 1.282.03l7.07-3.802a1.298 1.298 0 0 0 .007-2.283Zm-7.116 3.976V9.806l5.284 2.89-5.284 2.842Z" fill="#fff"/><path d="m31.765 6.595-.002-.014c-.027-.258-.297-2.549-1.41-3.714-1.288-1.37-2.747-1.537-3.45-1.617a8.509 8.509 0 0 1-.158-.019l-.056-.006c-4.23-.308-10.62-.35-10.683-.35h-.012c-.064 0-6.453.042-10.721.35l-.056.006-.15.018c-.694.08-2.138.247-3.43 1.667C.578 4.069.272 6.311.24 6.563l-.004.032C.225 6.703 0 9.255 0 11.815v2.395c0 2.562.226 5.113.235 5.22l.002.017c.027.253.297 2.502 1.405 3.668 1.21 1.325 2.741 1.5 3.565 1.594.13.015.242.028.318.041l.074.01c2.443.233 10.101.347 10.426.352h.02c.063 0 6.452-.042 10.682-.35l.056-.006.18-.02c.69-.073 2.126-.225 3.399-1.626 1.06-1.153 1.368-3.395 1.399-3.647l.004-.033c.009-.107.235-2.658.235-5.22v-2.394c0-2.562-.226-5.113-.235-5.22Zm-1.64 7.615c0 2.371-.207 4.813-.227 5.037-.08.617-.403 2.036-.92 2.597-.797.877-1.615.964-2.213 1.027a9.65 9.65 0 0 0-.2.023c-4.091.296-10.24.341-10.522.343-.318-.005-7.864-.12-10.232-.34a8.298 8.298 0 0 0-.391-.05c-.701-.081-1.66-.191-2.398-1.003l-.018-.018c-.507-.53-.822-1.856-.901-2.572-.015-.17-.228-2.64-.228-5.044v-2.394c0-2.369.207-4.807.227-5.036.095-.728.424-2.06.92-2.599.821-.903 1.687-1.003 2.26-1.07.054-.006.105-.011.153-.018C9.585 2.796 15.778 2.752 16 2.75c.222.002 6.412.046 10.526.344l.165.019c.59.067 1.48.169 2.297 1.04l.008.008c.507.53.822 1.879.901 2.61.015.16.228 2.635.228 5.045v2.394Z" fill="#fff"/></svg>